<svg width="64" height="64" viewBox="0 0 64 64" xmlns="http://www.w3.org/2000/svg">
  <rect width="64" height="64" rx="14" fill="#6366f1"/>
  <g fill="#ffffff" transform="translate(-33.4 -33.2) scale(0.26)">
    <path fill-rule="evenodd" d="M 359 205 L 358 205 L 352 211 L 352 212 L 340 224 L 340 225 L 331 234 L 331 235 L 327 238 L 327 356 L 359 356 Z
    M 321 204 L 273 204 L 262 217 L 262 218 L 256 224 L 253 229 L 238 246 L 238 247 L 232 253 L 224 264 L 218 270 L 214 276 L 212 277 L 212 278 L 203 288 L 199 294 L 193 300 L 189 306 L 187 307 L 178 319 L 150 351 L 148 354 L 148 356 L 300 356 L 301 355 L 301 321 L 300 319 L 225 319 L 224 317 L 235 305 L 240 298 L 247 291 L 247 290 L 254 283 L 254 282 L 261 275 L 261 274 L 268 267 L 268 266 L 274 260 L 280 252 L 287 245 L 291 239 L 300 230 L 305 223 L 317 210 Z
    M 145 146 L 145 148 L 144 149 L 145 151 L 145 214 L 144 215 L 145 217 L 145 225 L 144 226 L 145 228 L 145 238 L 144 239 L 145 241 L 145 270 L 144 271 L 145 273 L 145 278 L 144 279 L 145 281 L 145 322 L 144 323 L 145 327 L 144 328 L 144 330 L 145 331 L 145 333 L 146 333 L 157 320 L 157 319 L 162 314 L 162 313 L 167 308 L 167 307 L 172 302 L 172 301 L 177 296 L 177 231 L 178 230 L 180 233 L 182 234 L 182 235 L 189 242 L 189 243 L 206 261 L 207 261 L 211 257 L 219 246 L 228 236 L 228 234 L 200 205 L 200 204 L 174 177 L 174 176 L 162 164 L 162 163 L 150 151 L 150 150 L 146 146 Z
    M 194 143 L 194 177 L 359 177 L 359 143 Z" />
  </g>
</svg>
